<?xml version="1.0" encoding="UTF-8" standalone="no"?>
<svg
   xmlns:dc="http://purl.org/dc/elements/1.1/"
   xmlns:cc="http://creativecommons.org/ns#"
   xmlns:rdf="http://www.w3.org/1999/02/22-rdf-syntax-ns#"
   xmlns:svg="http://www.w3.org/2000/svg"
   xmlns="http://www.w3.org/2000/svg"
   xmlns:sodipodi="http://sodipodi.sourceforge.net/DTD/sodipodi-0.dtd"
   xmlns:inkscape="http://www.inkscape.org/namespaces/inkscape"
   width="90px"
   height="72px"
   viewBox="0 0 90 72"
   version="1.1"
   id="svg86"
   sodipodi:docname="cart-remove-icon.svg"
   inkscape:version="1.0.2 (e86c870879, 2021-01-15)">
  <metadata
     id="metadata90">
    <rdf:RDF>
      <cc:Work
         rdf:about="">
        <dc:format>image/svg+xml</dc:format>
        <dc:type
           rdf:resource="http://purl.org/dc/dcmitype/StillImage" />
        <dc:title>Group 3</dc:title>
      </cc:Work>
    </rdf:RDF>
  </metadata>
  <sodipodi:namedview
     pagecolor="#ffffff"
     bordercolor="#666666"
     borderopacity="1"
     objecttolerance="10"
     gridtolerance="10"
     guidetolerance="10"
     inkscape:pageopacity="0"
     inkscape:pageshadow="2"
     inkscape:window-width="1366"
     inkscape:window-height="718"
     id="namedview88"
     showgrid="false"
     inkscape:zoom="5.1559869"
     inkscape:cx="31.239229"
     inkscape:cy="43.558972"
     inkscape:window-x="0"
     inkscape:window-y="24"
     inkscape:window-maximized="1"
     inkscape:current-layer="Page-1"
     inkscape:document-rotation="0" />
  <!-- Generator: Sketch 50.2 (55047) - http://www.bohemiancoding.com/sketch -->
  <title
     id="title76">Group 3</title>
  <desc
     id="desc78">Created with Sketch.</desc>
  <defs
     id="defs80" />
  <g
     id="Page-1"
     stroke="none"
     stroke-width="1"
     fill="none"
     fill-rule="evenodd">
    <g
       id="Group-3"
       fill="#E1E1E1"
       fill-rule="nonzero">
      <g
         id="mbri-cart-add">
        <path
           d="m 76.210033,0 c -7.412634,0 -13.450344,6.06 -13.450344,13.5 0,7.44 6.03771,13.5 13.450344,13.5 7.412634,0 13.450344,-6.06 13.450344,-13.5 0,-7.44 -6.03771,-13.5 -13.450344,-13.5 z m 0,3 c 5.798593,0 10.461379,4.68 10.461379,10.5 0,5.82 -4.662786,10.5 -10.461379,10.5 C 70.41144,24 65.748655,19.32 65.748655,13.5 65.748655,7.68 70.41144,3 76.210033,3 Z m 0.02349,9 h -6.001423 c -0.827944,0 -1.494483,0.669 -1.494483,1.5 0,0.831 0.666539,1.5 1.494483,1.5 h 6.010467 c 7.472413,0 5.174402,0.03097 5.945394,0 0.827943,0 1.494483,-0.669 1.494483,-1.5 0,-0.831 -0.66654,-1.5 -1.494483,-1.5 -2.490804,0 -3.463633,0 -5.954438,0 z M 31.375553,39 h 38.85655 c 0.827943,0 1.494482,0.669 1.494482,1.5 0,0.831 -0.666539,1.5 -1.494482,1.5 h -38.85655 c -0.827943,0 -1.494483,-0.669 -1.494483,-1.5 0,-0.831 0.66654,-1.5 1.494483,-1.5 z M 28.386588,27 h 35.867584 c 0.827943,0 1.494483,0.669 1.494483,1.5 0,0.831 -0.66654,1.5 -1.494483,1.5 H 28.386588 c -0.827944,0 -1.494483,-0.669 -1.494483,-1.5 0,-0.831 0.666539,-1.5 1.494483,-1.5 z m 35.867584,30 c -4.109827,0 -7.472413,3.375 -7.472413,7.5 0,4.125 3.362586,7.5 7.472413,7.5 4.109827,0 7.472413,-3.375 7.472413,-7.5 0,-4.125 -3.362586,-7.5 -7.472413,-7.5 z m 0,3 c 2.492797,0 4.483448,1.998 4.483448,4.5 0,2.502 -1.990651,4.5 -4.483448,4.5 -2.492797,0 -4.483448,-1.998 -4.483448,-4.5 0,-2.502 1.990651,-4.5 4.483448,-4.5 z M 34.364518,57 c -4.109827,0 -7.472413,3.375 -7.472413,7.5 0,4.125 3.362586,7.5 7.472413,7.5 4.109828,0 7.472414,-3.375 7.472414,-7.5 0,-4.125 -3.362586,-7.5 -7.472414,-7.5 z m 0,3 c 2.492797,0 4.483448,1.998 4.483448,4.5 0,2.502 -1.990651,4.5 -4.483448,4.5 -2.492797,0 -4.483448,-1.998 -4.483448,-4.5 0,-2.502 1.990651,-4.5 4.483448,-4.5 z M 1.5098113,3 c -2.00260677,0 -2.02352953,3 0,3 H 12.246175 c 0.221183,1.065 1.912938,9.165 3.9275,18.69 1.07005,5.058 2.164011,10.218 3.042767,14.298 0.875767,4.08 1.509428,6.981 1.757512,7.899 0.394543,1.482 0.765175,3.165 1.853158,4.632 1.082006,1.464 2.988965,2.478 5.559476,2.478 h 41.821603 c 2.57051,0 4.47747,-1.014 5.565453,-2.478 1.084995,-1.47 1.452637,-3.15 1.853159,-4.635 0.26004,-0.996 0.669528,-3.309 1.225476,-6.21 0.54698,-2.91 1.195586,-6.279 1.793379,-8.841 0.493179,-1.839 -2.558555,-2.64 -2.905274,-0.678 -0.615727,2.652 -1.276289,6.036 -1.829247,8.952 -0.552959,2.919 -1.037171,5.496 -1.171675,6 -0.406499,1.518 -0.786097,2.835 -1.365957,3.618 -0.579859,0.786 -1.255365,1.272 -3.162325,1.272 H 28.386588 c -1.90696,0 -2.582466,-0.486 -3.168304,-1.272 -0.57687,-0.78 -0.956469,-2.1 -1.362968,-3.615 C 23.705868,45.531 23.018406,42.429 22.13965,38.355 21.263883,34.281 20.166933,29.127 19.099872,24.063 16.959773,13.944 14.915321,4.191 14.915321,4.191 14.771851,3.501 14.162102,3.003 13.450728,3.003 Z M 25.4036,15 c -1.987662,0 -1.96375,3 0,3 h 29.865742 c 2.008585,0 1.96375,-3 0,-3 z"
           id="Shape"
           sodipodi:nodetypes="sssssssssscsssccsccsssssssssssssssssssssssssssssssssscscccccssccccccccsscccccccsssss" />
      </g>
    </g>
  </g>
</svg>
